<?xml version="1.0" encoding="UTF-8" standalone="no"?>
<!-- Created with Inkscape (http://www.inkscape.org/) -->

<svg
   xmlns:dc="http://purl.org/dc/elements/1.1/"
   xmlns:cc="http://creativecommons.org/ns#"
   xmlns:rdf="http://www.w3.org/1999/02/22-rdf-syntax-ns#"
   xmlns:svg="http://www.w3.org/2000/svg"
   xmlns="http://www.w3.org/2000/svg"
   xmlns:xlink="http://www.w3.org/1999/xlink"
   xmlns:sodipodi="http://sodipodi.sourceforge.net/DTD/sodipodi-0.dtd"
   xmlns:inkscape="http://www.inkscape.org/namespaces/inkscape"
   width="3360"
   height="1080"
   id="svg2"
   version="1.1"
   inkscape:version="0.48.5 r10040"
   sodipodi:docname="archlinux.svg"
   inkscape:export-filename="/home/gabriel/Pictures/wallpaper/archlinux.png"
   inkscape:export-xdpi="90"
   inkscape:export-ydpi="90"
   style="enable-background:new">
  <defs
     id="defs4">
    <linearGradient
       gradientTransform="matrix(0.749107,0,0,0.749107,-35.459862,91.44108)"
       gradientUnits="userSpaceOnUse"
       xlink:href="#linearGradient3388"
       id="linearGradient4416"
       y2="183.9644"
       x2="490.72305"
       y1="237.72447"
       x1="490.72305" />
    <linearGradient
       id="linearGradient3388">
      <stop
         offset="0"
         style="stop-color:#000000;stop-opacity:0"
         id="stop3390" />
      <stop
         offset="1"
         style="stop-color:#000000;stop-opacity:0.37113401"
         id="stop3392" />
    </linearGradient>
    <linearGradient
       gradientTransform="matrix(-0.3937741,0,0,0.393752,357.51969,122.00151)"
       gradientUnits="userSpaceOnUse"
       xlink:href="#path1082_2_"
       id="linearGradient2544"
       y2="303.14029"
       x2="606.91248"
       y1="104.50665"
       x1="541.33502" />
    <linearGradient
       gradientTransform="translate(287,-83)"
       gradientUnits="userSpaceOnUse"
       id="path1082_2_"
       y2="129.3468"
       x2="112.49853"
       y1="6.1372099"
       x1="112.49854">
      <stop
         offset="0"
         style="stop-color:#ffffff;stop-opacity:0"
         id="stop193" />
      <stop
         offset="1"
         style="stop-color:#ffffff;stop-opacity:0.27450982"
         id="stop195" />
      <midPointStop
         id="midPointStop197"
         style="stop-color:#FFFFFF"
         offset="0" />
      <midPointStop
         id="midPointStop199"
         style="stop-color:#FFFFFF"
         offset="0.5" />
      <midPointStop
         id="midPointStop201"
         style="stop-color:#000000"
         offset="1" />
    </linearGradient>
    <filter
       id="filter3947"
       inkscape:label="Desaturate"
       width="1"
       x="0"
       y="0"
       height="1"
       inkscape:menu="Color"
       inkscape:menu-tooltip="Render in shades of gray by reducing saturation to zero"
       color-interpolation-filters="sRGB">
      <feTurbulence
         id="feTurbulence3949"
         baseFrequency="0.40000000000000002"
         numOctaves="10"
         seed="243"
         result="fbSourceGraphic"
         type="turbulence" />
      <feColorMatrix
         result="fbSourceGraphicAlpha"
         in="fbSourceGraphic"
         values="0 0 0 -1 0 0 0 0 -1 0 0 0 0 -1 0 0 0 0 1 0"
         id="feColorMatrix3951" />
      <feColorMatrix
         id="feColorMatrix3953"
         type="saturate"
         values="0"
         in="fbSourceGraphic" />
    </filter>
    <clipPath
       clipPathUnits="userSpaceOnUse"
       id="clipPath4037">
      <path
         style="fill:#00006a;fill-opacity:1;fill-rule:evenodd;stroke:none;display:inline"
         id="path4039"
         d="m 2398.8642,231.32484 c -27.4897,67.39717 -44.07,111.48281 -74.6759,176.87651 18.7651,19.89126 41.7989,43.05562 79.2054,69.2176 -40.2157,-16.54849 -67.6478,-33.16275 -88.1481,-50.40342 -39.1699,81.73404 -100.5378,198.16056 -225.0733,421.92539 97.8805,-56.50821 173.756,-91.34612 244.4683,-104.63936 -3.0366,-13.05955 -4.7629,-27.18599 -4.6454,-41.92542 l 0.1152,-3.1357 c 1.553,-62.70954 34.1747,-110.93319 72.818,-107.65891 38.6429,3.27428 68.6802,56.7953 67.1271,119.50488 -0.2936,11.79995 -1.6233,23.15138 -3.9486,33.6797 69.9441,13.68238 145.0083,48.4311 241.5647,104.17481 -19.039,-35.05217 -36.0332,-66.64914 -52.2616,-96.74205 -25.5627,-19.81281 -52.2259,-45.59925 -106.6137,-73.51466 37.3828,9.71369 64.1489,20.9207 85.0123,33.44743 -165.001,-307.20289 -178.3625,-348.02381 -234.9452,-480.8068 z"
         inkscape:connector-curvature="0" />
    </clipPath>
    <clipPath
       clipPathUnits="userSpaceOnUse"
       id="clipPath4188">
      <g
         style="fill:#4d4d4d;fill-opacity:1;display:inline"
         id="g4190"
         transform="matrix(0.97102541,0,0,0.97102541,1638.6835,63.061893)">
        <path
           style="fill:#4d4d4d;fill-opacity:1;fill-rule:evenodd;stroke:none"
           id="path4192"
           d="m 339.96875,309.09375 c -14.47141,-0.0239 -26.4812,2.94367 -31.125,4.5625 l -4.78125,25.8125 c -0.0116,0.0951 23.79543,-6.34855 34.28125,-5.96875 17.36158,0.62381 18.95948,6.63541 18.65625,14.75 0.29595,0.47462 -4.47933,-7.33192 -19.5,-7.59375 -18.94961,-0.32687 -45.69284,6.70947 -45.65625,35.3125 -0.51086,32.17412 24.03361,41.63882 40.75,41.8125 15.02821,-0.27364 22.0777,-5.69136 25.9375,-8.59375 5.07124,-5.30236 10.87308,-10.63447 16.40625,-17.03125 -5.23567,9.51278 -9.77472,16.0898 -14.5,21.125 l 0,4.25 22.84375,-3.84375 0.15625,-62.09375 c -0.23141,-8.78839 5.04123,-42.41827 -43.46875,-42.5 z m -3.28125,54.0625 c 9.46889,0.12995 20.32788,4.79708 20.34375,16.03125 0.049,10.21821 -12.80005,15.71183 -21.15625,15.625 -8.35976,-0.0868 -19.45093,-6.56982 -19.5,-16.53125 0.16016,-8.90444 10.45953,-15.35418 20.3125,-15.125 z"
           inkscape:connector-curvature="0" />
        <path
           style="fill:#4d4d4d;fill-opacity:1;fill-rule:evenodd;stroke:none"
           id="path4194"
           d="m 398.50106,314.83145 -0.15505,102.82693 26.61213,-5.12724 0.0449,-58.30157 c 0.006,-8.68089 12.40554,-18.82451 27.9627,-18.66287 3.30202,-5.97408 9.5087,-21.24219 11.02088,-24.71514 -34.75649,-0.0833 -35.19897,9.98993 -41.24398,14.94517 -0.0631,-9.45285 -0.0213,-15.12741 -0.0213,-15.12741 l -24.2202,4.16213 z"
           inkscape:connector-curvature="0" />
        <path
           style="fill:#4d4d4d;fill-opacity:1;fill-rule:evenodd;stroke:none"
           id="path4196"
           d="m 548.2688,328.33058 c -0.25696,-0.12068 -13.87938,-15.93419 -41.26638,-16.0589 -25.65249,-0.42638 -54.42578,9.51895 -54.88631,52.5328 0.22457,37.81852 27.6402,52.59809 55.0314,52.88627 29.31292,0.30451 40.97654,-18.32947 41.67615,-18.79124 -3.49762,-3.0321 -16.59792,-16.0131 -16.59792,-16.0131 0,0 -8.18236,11.65102 -24.05802,11.79913 -15.87942,0.1512 -29.68245,-12.27325 -29.87805,-29.60905 -0.20349,-17.33595 12.68881,-26.72821 29.99725,-27.48687 14.98466,-0.003 23.6297,9.67334 23.6297,9.67334 l 16.35218,-18.93238 z"
           inkscape:connector-curvature="0" />
        <path
           style="fill:#4d4d4d;fill-opacity:1;fill-rule:evenodd;stroke:none"
           id="path4198"
           d="m 581.8125,278.84375 -25.125,5.90625 0.1875,133.9375 24.75,-4.46875 0.28125,-63.03125 c 0.0529,-6.60927 9.56127,-16.75916 25.4375,-16.4375 15.17973,0.15775 18.57236,10.11767 18.53125,11.375 l 0.4375,72.96875 24.40625,-4.3125 0.0937,-77.375 c 0.1607,-7.44539 -16.30833,-23.16954 -42.78125,-23.28125 -12.58087,0.0202 -19.54815,2.86825 -23.09375,4.96875 -6.06656,4.68565 -12.9998,9.17543 -19.8125,14.90625 6.29809,-8.09099 11.58551,-13.68516 16.75,-17.84375 l -0.0625,-37.3125 z"
           inkscape:connector-curvature="0" />
      </g>
    </clipPath>
    <clipPath
       clipPathUnits="userSpaceOnUse"
       id="clipPath4450">
      <g
         style="fill:#1793d1;fill-opacity:1;stroke:none;display:inline"
         id="g4452"
         transform="matrix(1.4375843,0,0.02034345,1.4375843,1963.6208,-568.18394)">
        <path
           style="fill:#1793d1;fill-opacity:1;fill-rule:evenodd;stroke:none"
           id="path4454"
           d="m 400.67581,629.79609 7.68167,-1.91575 -0.92851,91.20792 -7.79574,1.32426 1.04258,-90.61643 z"
           inkscape:connector-curvature="0" />
        <path
           style="fill:#1793d1;fill-opacity:1;fill-rule:evenodd;stroke:none"
           id="path4456"
           d="m 421.10266,657.01757 6.75064,-2.9867 -0.86808,65.39931 -6.49779,1.33915 0.61523,-63.75176 z m -1.26059,-23.58316 5.47167,-4.41533 4.42261,4.99952 -5.47558,4.53221 -4.4187,-5.1164 z"
           inkscape:connector-curvature="0" />
        <path
           style="fill:#1793d1;fill-opacity:1;fill-rule:evenodd;stroke:none"
           id="path4458"
           d="m 440.44273,655.82614 7.67755,-1.56201 -0.1573,13.6722 c -0.007,0.58717 4.4194,-15.27364 24.68502,-14.92094 19.67986,0.10952 22.68401,15.34634 22.5291,18.76237 l -0.43759,48.0783 -6.73044,1.45631 0.63316,-47.489 c 0.0974,-1.38684 -2.88144,-13.11441 -16.78906,-13.15754 -13.90509,-0.0404 -23.68364,10.10048 -23.75821,16.57937 l -0.48127,41.83477 -7.80388,2.0313 0.63292,-65.28513 z"
           inkscape:connector-curvature="0" />
        <path
           style="fill:#1793d1;fill-opacity:1;fill-rule:evenodd;stroke:none"
           id="path4460"
           d="m 561.53301,720.20203 -7.6776,1.56186 0.15737,-13.67198 c 0.007,-0.58742 -4.42201,15.27361 -24.68504,14.92086 -19.67983,-0.10944 -22.68399,-15.34626 -22.52908,-18.76229 l 0.43757,-48.07861 8.15674,-1.64226 -0.54644,47.48988 c -0.0149,1.29682 1.36845,13.29979 15.27604,13.3426 13.90511,0.0405 23.76622,-8.37359 24.01453,-21.04416 l 0.43105,-37.46902 7.5978,-1.93195 -0.63294,65.28507 z"
           inkscape:connector-curvature="0" />
        <path
           style="fill:#1793d1;fill-opacity:1;fill-rule:evenodd;stroke:none"
           id="path4462"
           d="m 577.45461,655.28678 -5.42715,4.20017 20.19894,26.93328 -22.39092,31.11622 5.63499,4.226 21.04365,-28.8967 20.8779,29.58159 5.32727,-4.20103 -22.37578,-31.62866 18.56963,-25.5775 -5.53193,-4.73429 -16.92109,23.66778 -19.00551,-24.68686 z"
           inkscape:connector-curvature="0" />
      </g>
    </clipPath>
    <filter
       inkscape:collect="always"
       id="filter3849"
       color-interpolation-filters="sRGB">
      <feBlend
         inkscape:collect="always"
         mode="multiply"
         in2="BackgroundImage"
         id="feBlend3851" />
    </filter>
    <filter
       color-interpolation-filters="sRGB"
       inkscape:collect="always"
       id="filter3849-4">
      <feBlend
         inkscape:collect="always"
         mode="multiply"
         in2="BackgroundImage"
         id="feBlend3851-2" />
    </filter>
    <filter
       inkscape:collect="always"
       id="filter3827"
       color-interpolation-filters="sRGB">
      <feGaussianBlur
         inkscape:collect="always"
         stdDeviation="4.1800001"
         id="feGaussianBlur3829" />
    </filter>
    <clipPath
       clipPathUnits="userSpaceOnUse"
       id="clipPath4037-4">
      <path
         style="fill:#00006a;fill-opacity:1;fill-rule:evenodd;stroke:none;display:inline"
         id="path4039-5"
         d="m 2398.8642,231.32484 c -27.4897,67.39717 -44.07,111.48281 -74.6759,176.87651 18.7651,19.89126 41.7989,43.05562 79.2054,69.2176 -40.2157,-16.54849 -67.6478,-33.16275 -88.1481,-50.40342 -39.1699,81.73404 -100.5378,198.16056 -225.0733,421.92539 97.8805,-56.50821 173.756,-91.34612 244.4683,-104.63936 -3.0366,-13.05955 -4.7629,-27.18599 -4.6454,-41.92542 l 0.1152,-3.1357 c 1.553,-62.70954 34.1747,-110.93319 72.818,-107.65891 38.6429,3.27428 68.6802,56.7953 67.1271,119.50488 -0.2936,11.79995 -1.6233,23.15138 -3.9486,33.6797 69.9441,13.68238 145.0083,48.4311 241.5647,104.17481 -19.039,-35.05217 -36.0332,-66.64914 -52.2616,-96.74205 -25.5627,-19.81281 -52.2259,-45.59925 -106.6137,-73.51466 37.3828,9.71369 64.1489,20.9207 85.0123,33.44743 -165.001,-307.20289 -178.3625,-348.02381 -234.9452,-480.8068 z"
         inkscape:connector-curvature="0" />
    </clipPath>
    <filter
       color-interpolation-filters="sRGB"
       inkscape:collect="always"
       id="filter3827-3">
      <feGaussianBlur
         inkscape:collect="always"
         stdDeviation="4.1800001"
         id="feGaussianBlur3829-8" />
    </filter>
  </defs>
  <sodipodi:namedview
     id="base"
     pagecolor="#323232"
     bordercolor="#666666"
     borderopacity="1.0"
     inkscape:pageopacity="1"
     inkscape:pageshadow="2"
     inkscape:zoom="0.125"
     inkscape:cx="1277.8591"
     inkscape:cy="850.13491"
     inkscape:document-units="px"
     inkscape:current-layer="layer2"
     showgrid="false"
     fit-margin-top="0"
     fit-margin-left="0"
     fit-margin-right="0"
     fit-margin-bottom="0"
     showguides="true"
     inkscape:guide-bbox="true"
     inkscape:window-width="1600"
     inkscape:window-height="885"
     inkscape:window-x="1440"
     inkscape:window-y="15"
     inkscape:window-maximized="0">
    <sodipodi:guide
       orientation="1,0"
       position="0.65625,0.65625"
       id="guide2985" />
    <sodipodi:guide
       orientation="0,1"
       position="-1439.3438,80.65625"
       id="guide2987" />
    <sodipodi:guide
       orientation="0,1"
       position="-1439.3438,980.65625"
       id="guide2989" />
    <sodipodi:guide
       orientation="1,0"
       position="960.65625,0.65625"
       id="guide3134" />
    <sodipodi:guide
       orientation="0,1"
       position="-1439.3438,540.65625"
       id="guide3136" />
    <sodipodi:guide
       orientation="1,0"
       position="1920.6562,0.65625"
       id="guide3824" />
  </sodipodi:namedview>
  <metadata
     id="metadata7">
    <rdf:RDF>
      <cc:Work
         rdf:about="">
        <dc:format>image/svg+xml</dc:format>
        <dc:type
           rdf:resource="http://purl.org/dc/dcmitype/StillImage" />
        <dc:title></dc:title>
      </cc:Work>
    </rdf:RDF>
  </metadata>
  <g
     inkscape:label="Logo"
     inkscape:groupmode="layer"
     id="layer1"
     transform="translate(-1439.3438,26.981567)"
     style="display:inline">
    <g
       style="fill:#4d4d4d;fill-opacity:1"
       id="g2809"
       transform="matrix(0.97102541,0,0,0.97102541,1638.6835,35.424077)">
      <path
         style="fill:#4d4d4d;fill-opacity:1;fill-rule:evenodd;stroke:none"
         id="path2284"
         d="m 339.96875,309.09375 c -14.47141,-0.0239 -26.4812,2.94367 -31.125,4.5625 l -4.78125,25.8125 c -0.0116,0.0951 23.79543,-6.34855 34.28125,-5.96875 17.36158,0.62381 18.95948,6.63541 18.65625,14.75 0.29595,0.47462 -4.47933,-7.33192 -19.5,-7.59375 -18.94961,-0.32687 -45.69284,6.70947 -45.65625,35.3125 -0.51086,32.17412 24.03361,41.63882 40.75,41.8125 15.02821,-0.27364 22.0777,-5.69136 25.9375,-8.59375 5.07124,-5.30236 10.87308,-10.63447 16.40625,-17.03125 -5.23567,9.51278 -9.77472,16.0898 -14.5,21.125 l 0,4.25 22.84375,-3.84375 0.15625,-62.09375 c -0.23141,-8.78839 5.04123,-42.41827 -43.46875,-42.5 z m -3.28125,54.0625 c 9.46889,0.12995 20.32788,4.79708 20.34375,16.03125 0.049,10.21821 -12.80005,15.71183 -21.15625,15.625 -8.35976,-0.0868 -19.45093,-6.56982 -19.5,-16.53125 0.16016,-8.90444 10.45953,-15.35418 20.3125,-15.125 z"
         inkscape:connector-curvature="0" />
      <path
         style="fill:#4d4d4d;fill-opacity:1;fill-rule:evenodd;stroke:none"
         id="path2286"
         d="m 398.50106,314.83145 -0.15505,102.82693 26.61213,-5.12724 0.0449,-58.30157 c 0.006,-8.68089 12.40554,-18.82451 27.9627,-18.66287 3.30202,-5.97408 9.5087,-21.24219 11.02088,-24.71514 -34.75649,-0.0833 -35.19897,9.98993 -41.24398,14.94517 -0.0631,-9.45285 -0.0213,-15.12741 -0.0213,-15.12741 l -24.2202,4.16213 z"
         inkscape:connector-curvature="0" />
      <path
         style="fill:#4d4d4d;fill-opacity:1;fill-rule:evenodd;stroke:none"
         id="path2288"
         d="m 548.2688,328.33058 c -0.25696,-0.12068 -13.87938,-15.93419 -41.26638,-16.0589 -25.65249,-0.42638 -54.42578,9.51895 -54.88631,52.5328 0.22457,37.81852 27.6402,52.59809 55.0314,52.88627 29.31292,0.30451 40.97654,-18.32947 41.67615,-18.79124 -3.49762,-3.0321 -16.59792,-16.0131 -16.59792,-16.0131 0,0 -8.18236,11.65102 -24.05802,11.79913 -15.87942,0.1512 -29.68245,-12.27325 -29.87805,-29.60905 -0.20349,-17.33595 12.68881,-26.72821 29.99725,-27.48687 14.98466,-0.003 23.6297,9.67334 23.6297,9.67334 l 16.35218,-18.93238 z"
         inkscape:connector-curvature="0" />
      <path
         style="fill:#4d4d4d;fill-opacity:1;fill-rule:evenodd;stroke:none"
         id="path2290"
         d="m 581.8125,278.84375 -25.125,5.90625 0.1875,133.9375 24.75,-4.46875 0.28125,-63.03125 c 0.0529,-6.60927 9.56127,-16.75916 25.4375,-16.4375 15.17973,0.15775 18.57236,10.11767 18.53125,11.375 l 0.4375,72.96875 24.40625,-4.3125 0.0937,-77.375 c 0.1607,-7.44539 -16.30833,-23.16954 -42.78125,-23.28125 -12.58087,0.0202 -19.54815,2.86825 -23.09375,4.96875 -6.06656,4.68565 -12.9998,9.17543 -19.8125,14.90625 6.29809,-8.09099 11.58551,-13.68516 16.75,-17.84375 l -0.0625,-37.3125 z"
         inkscape:connector-curvature="0" />
    </g>
    <g
       style="fill:#1793d1;fill-opacity:1;stroke:none"
       id="g5326"
       transform="matrix(1.4375843,0,0.02034345,1.4375843,1963.6208,-595.82176)">
      <path
         style="fill:#1793d1;fill-opacity:1;fill-rule:evenodd;stroke:none"
         id="path2292"
         d="m 400.67581,629.79609 7.68167,-1.91575 -0.92851,91.20792 -7.79574,1.32426 1.04258,-90.61643 z"
         inkscape:connector-curvature="0" />
      <path
         style="fill:#1793d1;fill-opacity:1;fill-rule:evenodd;stroke:none"
         id="path2294"
         d="m 421.10266,657.01757 6.75064,-2.9867 -0.86808,65.39931 -6.49779,1.33915 0.61523,-63.75176 z m -1.26059,-23.58316 5.47167,-4.41533 4.42261,4.99952 -5.47558,4.53221 -4.4187,-5.1164 z"
         inkscape:connector-curvature="0" />
      <path
         style="fill:#1793d1;fill-opacity:1;fill-rule:evenodd;stroke:none"
         id="path2296"
         d="m 440.44273,655.82614 7.67755,-1.56201 -0.1573,13.6722 c -0.007,0.58717 4.4194,-15.27364 24.68502,-14.92094 19.67986,0.10952 22.68401,15.34634 22.5291,18.76237 l -0.43759,48.0783 -6.73044,1.45631 0.63316,-47.489 c 0.0974,-1.38684 -2.88144,-13.11441 -16.78906,-13.15754 -13.90509,-0.0404 -23.68364,10.10048 -23.75821,16.57937 l -0.48127,41.83477 -7.80388,2.0313 0.63292,-65.28513 z"
         inkscape:connector-curvature="0" />
      <path
         style="fill:#1793d1;fill-opacity:1;fill-rule:evenodd;stroke:none"
         id="path2298"
         d="m 561.53301,720.20203 -7.6776,1.56186 0.15737,-13.67198 c 0.007,-0.58742 -4.42201,15.27361 -24.68504,14.92086 -19.67983,-0.10944 -22.68399,-15.34626 -22.52908,-18.76229 l 0.43757,-48.07861 8.15674,-1.64226 -0.54644,47.48988 c -0.0149,1.29682 1.36845,13.29979 15.27604,13.3426 13.90511,0.0405 23.76622,-8.37359 24.01453,-21.04416 l 0.43105,-37.46902 7.5978,-1.93195 -0.63294,65.28507 z"
         inkscape:connector-curvature="0" />
      <path
         style="fill:#1793d1;fill-opacity:1;fill-rule:evenodd;stroke:none"
         id="path2300"
         d="m 577.45461,655.28678 -5.42715,4.20017 20.19894,26.93328 -22.39092,31.11622 5.63499,4.226 21.04365,-28.8967 20.8779,29.58159 5.32727,-4.20103 -22.37578,-31.62866 18.56963,-25.5775 -5.53193,-4.73429 -16.92109,23.66778 -19.00551,-24.68686 z"
         inkscape:connector-curvature="0" />
    </g>
    <path
       style="fill:#4d4d4d;fill-opacity:1;fill-rule:evenodd;stroke:none"
       id="path2518"
       d="m 2398.8642,203.68706 c -27.4897,67.39717 -44.07,111.48281 -74.6759,176.87651 18.7651,19.89126 41.7989,43.05562 79.2054,69.2176 -40.2157,-16.54849 -67.6478,-33.16275 -88.1481,-50.40342 -39.1699,81.73404 -100.5378,198.16056 -225.0733,421.92539 97.8805,-56.50821 173.756,-91.34612 244.4683,-104.63936 -3.0366,-13.05955 -4.7629,-27.18599 -4.6454,-41.92542 l 0.1152,-3.1357 c 1.553,-62.70954 34.1747,-110.93319 72.818,-107.65891 38.6429,3.27428 68.6802,56.7953 67.1271,119.50488 -0.2936,11.79995 -1.6233,23.15138 -3.9486,33.6797 69.9441,13.68238 145.0083,48.4311 241.5647,104.17481 -19.039,-35.05217 -36.0332,-66.64914 -52.2616,-96.74205 -25.5627,-19.81281 -52.2259,-45.59925 -106.6137,-73.51466 37.3828,9.71369 64.1489,20.9207 85.0123,33.44743 -165.001,-307.20289 -178.3625,-348.02381 -234.9452,-480.8068 z"
       inkscape:connector-curvature="0" />
  </g>
  <g
     inkscape:groupmode="layer"
     id="layer3"
     inkscape:label="Blur"
     style="display:inline"
     transform="translate(-1439.3438,-0.65625)">
    <path
       style="fill:#000000;fill-opacity:1;display:inline;filter:url(#filter3827)"
       d="m 2002.5312,136.71875 0,843.28125 828.7188,0 0,-843.28125 -828.7188,0 z m 396.3438,94.59375 c 56.5827,132.78299 69.9365,173.60961 234.9375,480.8125 -20.8634,-12.52673 -47.6485,-23.72381 -85.0313,-33.4375 54.3879,27.91541 81.0624,53.68719 106.625,73.5 16.2284,30.09291 33.211,61.69783 52.25,96.75 -96.5563,-55.74371 -171.6183,-90.47387 -241.5624,-104.15625 2.3253,-10.52832 3.6751,-21.88755 3.9687,-33.6875 1.5531,-62.70958 -28.4821,-116.22572 -67.125,-119.5 -38.6433,-3.27428 -71.2595,44.94671 -72.8125,107.65625 l -0.125,3.125 c -0.1175,14.73943 1.5884,28.87795 4.625,41.9375 -70.7123,13.29324 -146.557,48.11679 -244.4375,104.625 C 2214.723,625.17267 2276.0801,508.73404 2315.25,427 c 20.5003,17.24067 47.9405,33.85776 88.1562,50.40625 -37.4065,-26.16198 -60.4536,-49.32749 -79.2187,-69.21875 30.6059,-65.3937 47.1978,-109.47783 74.6875,-176.875 z"
       id="rect4015"
       inkscape:connector-curvature="0"
       clip-path="url(#clipPath4037)" />
    <path
       style="fill:#000000;fill-opacity:1;display:inline;filter:url(#filter3827-3)"
       d="m 2002.5312,136.71875 0,843.28125 828.7188,0 0,-843.28125 -828.7188,0 z m 396.3438,94.59375 c 56.5827,132.78299 69.9365,173.60961 234.9375,480.8125 -20.8634,-12.52673 -47.6485,-23.72381 -85.0313,-33.4375 54.3879,27.91541 81.0624,53.68719 106.625,73.5 16.2284,30.09291 33.211,61.69783 52.25,96.75 -96.5563,-55.74371 -171.6183,-90.47387 -241.5624,-104.15625 2.3253,-10.52832 3.6751,-21.88755 3.9687,-33.6875 1.5531,-62.70958 -28.4821,-116.22572 -67.125,-119.5 -38.6433,-3.27428 -71.2595,44.94671 -72.8125,107.65625 l -0.125,3.125 c -0.1175,14.73943 1.5884,28.87795 4.625,41.9375 -70.7123,13.29324 -146.557,48.11679 -244.4375,104.625 C 2214.723,625.17267 2276.0801,508.73404 2315.25,427 c 20.5003,17.24067 47.9405,33.85776 88.1562,50.40625 -37.4065,-26.16198 -60.4536,-49.32749 -79.2187,-69.21875 30.6059,-65.3937 47.1978,-109.47783 74.6875,-176.875 z"
       id="rect4015-1"
       inkscape:connector-curvature="0"
       clip-path="url(#clipPath4037-4)" />
  </g>
  <g
     inkscape:groupmode="layer"
     id="layer2"
     inkscape:label="Noise"
     style="opacity:0.2411067;display:inline;filter:url(#filter3849)"
     transform="translate(-1439.3438,-0.65625)">
    <rect
       style="fill:#000000;fill-opacity:1;fill-rule:evenodd;stroke:#000000;stroke-width:1.33381832px;stroke-linecap:butt;stroke-linejoin:miter;stroke-opacity:1;filter:url(#filter3947)"
       id="rect3943"
       width="3358.6663"
       height="1078.6661"
       x="1440"
       y="1.3338232"
       inkscape:export-xdpi="90"
       inkscape:export-ydpi="90" />
  </g>
  <g
     inkscape:groupmode="layer"
     id="layer4"
     inkscape:label="Black"
     style="display:inline"
     transform="translate(-1439.3438,-0.65625)">
    <rect
       style="color:#000000;fill:#000000;fill-opacity:1;fill-rule:evenodd;stroke:none;marker:none;visibility:visible;display:inline;overflow:visible;filter:url(#filter3849-4);enable-background:accumulate"
       id="rect3045-5"
       width="1440"
       height="80"
       x="144"
       y="992"
       ry="0"
       transform="scale(5.787037e-7,1)" />
    <rect
       style="color:#000000;fill:#000000;fill-opacity:1;fill-rule:evenodd;stroke:none;marker:none;visibility:visible;display:inline;overflow:visible;enable-background:accumulate"
       id="rect3862"
       width="1440"
       height="100"
       x="3360"
       y="0" />
    <rect
       style="color:#000000;fill:#000000;fill-opacity:1;fill-rule:evenodd;stroke:none;marker:none;visibility:visible;display:inline;overflow:visible;enable-background:accumulate"
       id="rect3862-2"
       width="1440"
       height="80"
       x="3360"
       y="1000" />
  </g>
</svg>
